<svg width="25" height="26" viewBox="0 0 25 26" fill="none" xmlns="http://www.w3.org/2000/svg">
<g filter="url(#filter0_i_76_8528)">
<path fill-rule="evenodd" clip-rule="evenodd" d="M24.5002 13.2789C24.5002 12.4106 24.4223 11.5757 24.2776 10.7742H12.7451V15.5108H19.3351C19.0512 17.0414 18.1885 18.3382 16.8917 19.2065V22.2789H20.849C23.1644 20.1472 24.5002 17.008 24.5002 13.2789Z" fill="#4285F4"/>
<path fill-rule="evenodd" clip-rule="evenodd" d="M12.7443 25.2451C16.0504 25.2451 18.8222 24.1486 20.8482 22.2785L16.8908 19.2061C15.7944 19.9408 14.3918 20.375 12.7443 20.375C9.55501 20.375 6.85557 18.221 5.89267 15.3267H1.80176V18.4993C3.8166 22.5011 7.95761 25.2451 12.7443 25.2451Z" fill="#34A853"/>
<path fill-rule="evenodd" clip-rule="evenodd" d="M5.89333 15.326C5.64843 14.5913 5.50928 13.8066 5.50928 12.9995C5.50928 12.1925 5.64843 11.4077 5.89333 10.673V7.50043H1.80241C0.973099 9.15349 0.5 11.0236 0.5 12.9995C0.5 14.9754 0.973099 16.8455 1.80241 18.4986L5.89333 15.326Z" fill="#FBBC05"/>
<path fill-rule="evenodd" clip-rule="evenodd" d="M12.7443 5.62508C14.542 5.62508 16.1561 6.24289 17.4251 7.45625L20.9372 3.94419C18.8166 1.9683 16.0448 0.754944 12.7443 0.754944C7.95761 0.754944 3.8166 3.49892 1.80176 7.50078L5.89267 10.6733C6.85557 7.77907 9.55501 5.62508 12.7443 5.62508Z" fill="#EA4335"/>
</g>
<defs>
<filter id="filter0_i_76_8528" x="0.5" y="0.754944" width="25.7326" height="29.6879" filterUnits="userSpaceOnUse" color-interpolation-filters="sRGB">
<feFlood flood-opacity="0" result="BackgroundImageFix"/>
<feBlend mode="normal" in="SourceGraphic" in2="BackgroundImageFix" result="shape"/>
<feColorMatrix in="SourceAlpha" type="matrix" values="0 0 0 0 0 0 0 0 0 0 0 0 0 0 0 0 0 0 127 0" result="hardAlpha"/>
<feOffset dx="1.73259" dy="5.19776"/>
<feGaussianBlur stdDeviation="2.59888"/>
<feComposite in2="hardAlpha" operator="arithmetic" k2="-1" k3="1"/>
<feColorMatrix type="matrix" values="0 0 0 0 0 0 0 0 0 0 0 0 0 0 0 0 0 0 0.25 0"/>
<feBlend mode="normal" in2="shape" result="effect1_innerShadow_76_8528"/>
</filter>
</defs>
</svg>
